<svg xmlns="http://www.w3.org/2000/svg" style="display: none;">

    <symbol id="icon-search" viewBox="0 0 24 24" fill="none" stroke="currentColor">
        <path
            d="M10 18C14.4183 18 18 14.4183 18 10C18 5.58172 14.4183 2 10 2C5.58172 2 2 5.58172 2 10C2 14.4183 5.58172 18 10 18Z"
            stroke-width="2" />
        <path d="M22 22L18 18" stroke-width="2" stroke-linecap="round" />
    </symbol>

    <symbol id="icon-cart" viewBox="0 0 32 32" fill="none" stroke="currentColor">
        <path
            d="M4.66699 6H6.63195C7.50974 6 7.94864 6 8.27908 6.22909C8.60951 6.45818 8.74824 6.85818 9.02571 7.65818L9.7118 9.63636"
            stroke-width="1.7" stroke-linecap="round" />
        <path
            d="M22.3238 21.7575H10.4054C10.2225 21.7575 10.1305 21.7575 10.0598 21.7502C9.88472 21.7314 9.71564 21.6776 9.5635 21.5922C9.41136 21.5067 9.27953 21.3916 9.17651 21.2542C9.07349 21.1169 9.00156 20.9602 8.96537 20.7945C8.92918 20.6288 8.92952 20.4576 8.96637 20.292C8.99537 20.1847 9.02946 20.0787 9.06853 19.9744C9.13411 19.7878 9.16564 19.6944 9.20222 19.6108C9.38175 19.1975 9.67689 18.8401 10.0549 18.5782C10.4329 18.3163 10.879 18.1602 11.3437 18.1272C11.4371 18.1211 11.5392 18.1211 11.7435 18.1211H18.5402"
            stroke-width="1.7" stroke-linecap="round" stroke-linejoin="round" />
        <path
            d="M18.1352 18.1211H14.2999C12.6855 18.1211 11.8784 18.1211 11.2478 17.7211C10.6159 17.3211 10.2981 16.6084 9.66243 15.1829L9.44928 14.7053C8.42771 12.4144 7.91818 11.2714 8.47816 10.4532C9.04065 9.63623 10.3372 9.63623 12.9277 9.63623H19.5868C22.4876 9.63623 23.9367 9.63623 24.4841 10.5417C25.0302 11.4471 24.3113 12.6568 22.8723 15.0762L22.5153 15.6787C21.8066 16.8702 21.4522 17.4665 20.8644 17.7938C20.2767 18.1211 19.5629 18.1211 18.1352 18.1211Z"
            stroke-width="1.7" stroke-linecap="round" />
        <path
            d="M20.5 27C21.3284 27 22 26.3284 22 25.5C22 24.6716 21.3284 24 20.5 24C19.6716 24 19 24.6716 19 25.5C19 26.3284 19.6716 27 20.5 27Z"
            fill="currentColor" stroke="none" />
        <path
            d="M11.5 27C12.3284 27 13 26.3284 13 25.5C13 24.6716 12.3284 24 11.5 24C10.6716 24 10 24.6716 10 25.5C10 26.3284 10.6716 27 11.5 27Z"
            fill="currentColor" stroke="none" />
    </symbol>

    <symbol id="icon-favorite" viewBox="0 0 32 32" fill="none" stroke="currentColor">
        <path
            d="M11.75 8C9.127 8 7 10.26 7 13.047C7 18.625 16 25 16 25C16 25 25 18.625 25 13.047C25 9.594 22.873 8 20.25 8C18.39 8 16.78 9.136 16 10.79C15.22 9.136 13.61 8 11.75 8Z"
            stroke-width="2" stroke-linecap="round" stroke-linejoin="round" />
    </symbol>

    <symbol id="icon-user" viewBox="0 0 32 32" fill="none" stroke="black">
        <path
            d="M15.333 18.6665C20.853 18.6665 25.333 20.7598 25.333 23.3332V26.6665H5.33301V23.3332C5.33301 20.7598 9.81301 18.6665 15.333 18.6665ZM23.9997 23.3332C23.9997 21.4932 20.1197 19.9998 15.333 19.9998C10.5463 19.9998 6.66634 21.4932 6.66634 23.3332V25.3332H23.9997V23.3332ZM15.333 6.6665C16.5707 6.6665 17.7577 7.15817 18.6328 8.03334C19.508 8.90851 19.9997 10.0955 19.9997 11.3332C19.9997 12.5708 19.508 13.7578 18.6328 14.633C17.7577 15.5082 16.5707 15.9998 15.333 15.9998C14.0953 15.9998 12.9083 15.5082 12.0332 14.633C11.158 13.7578 10.6663 12.5708 10.6663 11.3332C10.6663 10.0955 11.158 8.90851 12.0332 8.03334C12.9083 7.15817 14.0953 6.6665 15.333 6.6665ZM15.333 7.99984C14.449 7.99984 13.6011 8.35103 12.976 8.97615C12.3509 9.60127 11.9997 10.4491 11.9997 11.3332C11.9997 12.2172 12.3509 13.0651 12.976 13.6902C13.6011 14.3153 14.449 14.6665 15.333 14.6665C16.2171 14.6665 17.0649 14.3153 17.69 13.6902C18.3152 13.0651 18.6663 12.2172 18.6663 11.3332C18.6663 10.4491 18.3152 9.60127 17.69 8.97615C17.0649 8.35103 16.2171 7.99984 15.333 7.99984Z"
            fill="black" stroke-width="0.5" />
    </symbol>

    <symbol id="icon-logo-large" viewBox="0 0 183 129" fill="none">

            <path
                d="M99.4637 30.9344C98.7125 31.1981 97.9464 31.4172 97.1693 31.5903C96.1761 31.7095 96.4046 32.9022 97.07 32.8823C97.8893 32.7681 98.7017 32.6089 99.5034 32.4052M95.0836 33.9357C95.3162 34.0994 95.5865 34.2012 95.8691 34.2317C96.1518 34.2622 96.4376 34.2204 96.6997 34.1101C96.9618 33.9999 97.1916 33.8248 97.3676 33.6013C97.5435 33.3779 97.6599 33.1134 97.7057 32.8326M97.5766 31.4512C97.4562 31.1656 97.2688 30.9134 97.0303 30.7157C96.7996 30.5072 96.5126 30.3715 96.2051 30.3255C95.8977 30.2796 95.5836 30.3254 95.3021 30.4573M92.8985 34.1941V38.4577M90.4552 33.6575V37.8614M93.2561 29.8312C93.7131 30.1041 94.0648 30.5235 94.2541 31.0213C94.4433 31.5191 94.4592 32.0663 94.299 32.5742M89.6209 29.2548L90.783 29.6523C91.284 29.5069 91.811 29.4743 92.3262 29.5568C92.8413 29.6393 93.3319 29.8348 93.7626 30.1293C93.852 30.1293 94.5473 30.03 94.5473 30.03C94.9612 30.1886 95.3102 30.4812 95.5387 30.8612C95.7673 31.2411 95.8623 31.6867 95.8086 32.127C95.6696 34.3035 94.1698 34.1146 94.14 34.0649C94.1102 34.0153 93.6335 33.7767 93.5541 33.7171C92.9085 34.2736 90.932 34.3134 90.3758 33.3991C89.7208 33.5739 89.0283 33.5461 88.3893 33.3196M87.0386 32.0773C87.1021 32.4449 87.3047 32.774 87.6043 32.9961C87.9039 33.2182 88.2776 33.3162 88.6476 33.2699C89.0842 33.2648 89.5016 33.0896 89.8113 32.7816C90.1209 32.4736 90.2985 32.0569 90.3062 31.6201C90.634 29.6324 89.3925 28.9964 88.6972 29.0461C88.6972 29.0461 87.3067 29.0461 87.1478 30.0399M95.1332 18.5313L94.5473 19.7537M99.1657 8.8215L95.7292 17.0008M91.5775 28.41C92.4118 28.251 93.6633 28.897 94.3685 28.738C95.5206 28.4597 95.0439 27.0584 94.8254 26.8596C94.4579 26.3428 93.6335 26.1739 92.7793 25.9354M91.6073 28.5094C90.9618 28.5094 90.0977 28.9964 89.3925 28.8374C88.2404 28.5591 88.7171 27.1578 88.9356 26.959C89.3031 26.4422 90.2963 26.323 91.1504 26.0844M79.3908 7.20154C79.3908 7.20154 82.3704 3.49453 91.3094 3.53429C100.248 3.57404 104.082 7.16178 104.082 7.16178M91.6073 23.7887C92.3478 23.823 93.0798 23.9601 93.7825 24.1961C96.3549 20.3301 103.437 8.01649 104.122 7.14191C105.046 6.4661 104.489 5.03497 104.489 5.03497C104.489 5.03497 103.089 1.05963 91.7662 1M93.8421 24.1464C94.9743 24.5539 94.6664 26.7205 93.564 26.2733C93.0095 26.0755 92.4243 25.9779 91.8358 25.9851M89.8493 24.1464C88.727 24.544 89.1541 26.6807 90.2566 26.2335C90.7712 26.0444 91.3176 25.9566 91.8656 25.9751M91.7861 23.7887C91.0456 23.8223 90.3135 23.9595 89.611 24.1961C87.0286 20.3301 79.947 8.01649 79.2617 7.14191C78.338 6.4661 78.9041 5.03497 78.9041 5.03497C78.9041 5.03497 80.2946 1.05963 91.6272 1M100.228 31.6698C100.217 31.7987 100.168 31.9215 100.088 32.0231C100.008 32.1246 99.8994 32.2006 99.7767 32.2416C99.654 32.2827 99.522 32.2871 99.3968 32.2542C99.2717 32.2214 99.1588 32.1527 99.072 32.0567C98.9853 31.9607 98.9284 31.8414 98.9083 31.7135C98.8882 31.5856 98.9058 31.4546 98.959 31.3366C99.0121 31.2186 99.0985 31.1186 99.2075 31.0489C99.3166 30.9792 99.4436 30.9429 99.573 30.9443C99.7556 30.9546 99.9269 31.0365 100.05 31.1723C100.172 31.3081 100.237 31.4869 100.228 31.6698ZM92.8985 38.8751C92.7793 39.2826 92.1139 39.4416 91.4186 39.2329C90.7234 39.0242 90.2566 38.5372 90.4254 38.1297C90.5943 37.7223 91.2101 37.5632 91.9152 37.772C92.6204 37.9807 93.0276 38.4676 92.8985 38.8751ZM88.588 31.0337C88.5595 31.2213 88.478 31.3968 88.3531 31.5395C88.2281 31.6822 88.065 31.7861 87.8829 31.839C87.7008 31.8919 87.5074 31.8916 87.3256 31.838C87.1437 31.7844 86.9809 31.6799 86.8565 31.5367C86.7321 31.3936 86.6513 31.2178 86.6235 31.0301C86.5957 30.8424 86.6223 30.6507 86.6999 30.4777C86.7775 30.3046 86.903 30.1574 87.0616 30.0534C87.2202 29.9494 87.4052 29.893 87.5948 29.8908C87.7383 29.903 87.8779 29.9442 88.005 30.012C88.1321 30.0799 88.2442 30.1728 88.3343 30.2853C88.4244 30.3978 88.4907 30.5274 88.5292 30.6663C88.5677 30.8052 88.5775 30.9505 88.5582 31.0934L88.588 31.0337Z"
                stroke="black" stroke-linecap="round" stroke-linejoin="round" />
            <path d="M90.4951 29.5034V28.9171M92.7 29.9109V28.6885" stroke="black"
                stroke-linejoin="round" />
            <path
                d="M91.9854 34.3728V37.096M99.2358 3.30551C100.407 3.64204 101.52 4.15834 102.533 4.83602M79.6298 5.39256C79.6298 5.39256 85.8771 0.592334 97.8155 2.98748M80.2754 61.1667V59.7057M92.2734 69.3161V67.9049M92.1443 66.8017L92.2536 65.152M65.8439 61.7829V64.0786L92.323 69.3161L114.472 65.4203V63.4326M65.3076 60.3915V61.7232L65.8638 61.8326L92.1641 66.8514L114.849 63.4326L114.74 61.9916M72.4488 59.7554L65.5757 60.2822C65.5757 60.2822 92.0549 65.2513 92.2734 65.2513C92.4919 65.2513 114.74 62.0413 114.74 62.0413C114.74 62.0413 100.12 59.9641 100.279 59.9641M72.9256 58.6622L72.8064 60.0635L79.9277 61.1866L84.1787 60.948M103.318 47.243L102.931 50.5028M100.746 58.861C101.435 57.1616 101.976 55.4059 102.364 53.6135M84.6554 51.9439C84.9733 54.6685 85.641 57.3408 86.6419 59.8946M84.4767 49.1015V50.0158M101.143 57.887C103.685 57.1218 109.426 54.1104 108.84 49.4891C108.214 46.5573 105.275 46.925 103.467 47.5014M103.119 49.6183C103.308 49.5487 103.119 49.509 103.338 49.4493C104.172 49.181 106.079 48.694 106.486 49.6581C107.34 51.4668 104.291 54.6272 101.977 55.4322M92.2734 63.8003C92.2734 63.8003 96.574 63.7208 98.3519 62.1208C99.6595 61.0107 100.627 59.5533 101.143 57.9168M101.977 55.313C102.479 53.4568 102.848 51.567 103.08 49.6581M103.308 47.3822C103.355 47.086 103.331 46.7829 103.239 46.4976M92.5019 63.8003C90.1271 64.0417 87.7425 63.4478 85.7579 62.1208C81.8546 59.497 80.6826 47.4617 81.209 46.5772M92.7899 44.9175C98.6697 44.9175 103.338 45.7622 103.338 46.7362C103.338 47.7101 98.3718 48.5549 92.2536 48.5549C86.1354 48.5549 81.1692 47.7399 81.1692 46.7362C81.1692 45.7324 85.1421 45.0765 90.436 44.9373M80.8316 58.6225L82.9968 58.4138M86.9697 30.0695C86.9697 30.0695 80.9209 33.7964 79.302 42.9894C78.5665 47.2546 78.3763 51.5961 78.7359 55.9093L77.9612 58.3541L79.5702 58.6225C79.5702 58.3541 79.898 56.0882 79.898 56.0882M83.553 59.4772L80.1661 59.6958L73.005 58.5529L77.842 58.1553M88.3999 33.5977C88.3999 33.5977 84.139 36.7382 82.9173 44.1323C82.8279 44.659 82.7485 45.1858 82.679 45.6926M86.6518 31.7789C83.4615 34.8001 81.3122 38.7568 80.5137 43.0788C79.8311 47.3496 79.6445 51.685 79.9575 55.9987M88.7971 23.5003H87.0988V27.4259M88.4793 27.5054H85.9963V29.4931H87.5457"
                stroke="black" stroke-linecap="round" stroke-linejoin="round" />
            <path d="M92.0547 29.6719V28.6582" stroke="black" stroke-miterlimit="10" />
            <path
                d="M109.654 39.71L182.507 63.6813V99.1911L91.5084 129.006L0.5 99.1911V63.6813L73.3524 39.71"
                stroke="black" stroke-linecap="round" stroke-linejoin="round" />
            <path
                d="M91.6079 42.4331C91.6079 42.4331 89.5519 45.8618 91.8165 45.991C93.8923 45.6531 91.6079 42.4331 91.6079 42.4331Z"
                stroke="black" stroke-linecap="round" stroke-linejoin="round" />
            <path d="M83.1152 48.0187C89.0959 47.3262 95.138 47.3529 101.112 48.0982" stroke="black"
                stroke-linecap="round" stroke-linejoin="round" />
            <path d="M94.9453 28.3107C94.9453 28.3107 94.3991 28.0921 94.0713 27.9927"
                stroke="black" stroke-linecap="round" stroke-linejoin="round" />
            <path d="M88.6777 28.3107C88.6777 28.3107 91.3495 27.3964 92.8194 27.7243"
                stroke="black" stroke-linecap="round" stroke-linejoin="round" />
            <path
                d="M96.47 101.801C98.4274 101.149 100.278 100.211 101.962 99.0187C103.482 97.8758 103.611 96.3154 102.052 96.3154C100.87 96.3154 99.4695 97.7962 97.6022 100.291C95.9634 102.507 88.6633 111.71 87.0543 113.936C85.4453 116.162 83.0814 117.593 81.3135 115.655"
                stroke="black" stroke-linecap="round" stroke-linejoin="round" />
            <path
                d="M83.1303 102.109C81.2233 103.153 79.0184 106.552 79.9818 107.655C80.8061 108.589 83.5574 107.754 85.3153 106.015C86.7654 104.584 87.5799 102.646 86.8548 101.732C85.365 99.8831 83.5176 102.209 85.4246 102.626C87.3316 103.043 91.7414 103.103 97.8795 99.1377"
                stroke="black" stroke-linecap="round" stroke-linejoin="round" />
            <path
                d="M72.4141 99.1377C71.4209 99.0582 70.1197 100.628 72.1856 101.96C75.6619 104.206 79.7838 102.05 78.5025 101.414C77.5093 100.907 75.4036 102.179 74.7382 102.735C72.3743 104.723 70.7654 107.645 73.5364 108.231C75.94 108.748 79.317 106.452 80.4294 104.962"
                stroke="black" stroke-linecap="round" stroke-linejoin="round" />
            <path
                d="M87.3723 105.399C86.8161 107.745 93.9771 109.056 100.622 105.2C102.608 104.067 104.744 102.219 103.601 101.334C102.608 100.629 100.413 101.762 99.5292 102.418C98.3969 103.252 97.1355 104.674 97.0362 106.005C96.8972 107.894 98.2579 108.222 100.016 108.212C102.882 108.253 105.665 107.246 107.842 105.379C108.538 104.852 111.666 102.636 110.514 101.533C109.362 100.43 106.929 101.911 105.498 103.521C104.585 104.515 103.353 106.701 104.346 107.735C105.181 108.609 109.432 108.728 112.699 105.508"
                stroke="black" stroke-linecap="round" stroke-linejoin="round" />
            <path
                d="M97.8897 99.1379C99.5483 98.2037 99.4589 96.3154 97.8897 96.3154C96.7077 96.3154 95.3173 97.7962 93.45 100.291C91.8112 102.507 84.5111 111.71 82.8921 113.936C81.2732 116.162 79.4357 117.196 77.6777 116.172"
                stroke="black" stroke-linecap="round" stroke-linejoin="round" />
            <path
                d="M143.071 86.2179C143.07 86.5219 143.009 86.8226 142.89 87.1026C142.772 87.3826 142.599 87.6363 142.382 87.849C142.165 88.0616 141.908 88.229 141.625 88.3414C141.343 88.4538 141.041 88.509 140.737 88.5037C140.251 88.5089 139.769 88.4182 139.318 88.2366C138.867 88.055 138.457 87.7862 138.11 87.4455C137.763 87.1048 137.486 86.699 137.297 86.2513C137.107 85.8036 137.007 85.3228 137.003 84.8364"
                stroke="black" stroke-linecap="round" stroke-linejoin="round" />
            <path
                d="M85.8915 86.2177C85.8889 86.5187 85.8269 86.8163 85.7091 87.0933C85.5912 87.3703 85.4199 87.6212 85.2048 87.8318C84.9898 88.0423 84.7353 88.2083 84.456 88.3202C84.1767 88.432 83.8781 88.4876 83.5773 88.4837C82.5964 88.4916 81.6525 88.11 80.9524 87.4225C80.2523 86.7351 79.8533 85.7978 79.8428 84.8164"
                stroke="black" stroke-linecap="round" stroke-linejoin="round" />
            <path
                d="M128.997 81H138.572C140.24 81 141.084 81.8348 141.084 82.8585C141.084 83.8821 140.24 84.717 138.572 84.717H132.016"
                stroke="black" stroke-linecap="round" stroke-linejoin="round" />
            <path d="M132.017 88.4339V81" stroke="black" stroke-linecap="round"
                stroke-linejoin="round" />
            <path d="M135.036 88.4341H128.997" stroke="black" stroke-linecap="round"
                stroke-linejoin="round" />
            <path d="M55.9066 84.7173H49.3613" stroke="black" stroke-linecap="round"
                stroke-linejoin="round" />
            <path
                d="M71.8281 81H81.4027C83.0713 81 83.9057 81.8348 83.9057 82.8585C83.9057 83.8821 83.0713 84.717 81.4027 84.717H74.8475"
                stroke="black" stroke-linecap="round" stroke-linejoin="round" />
            <path d="M148.395 88.4339V81" stroke="black" stroke-linecap="round"
                stroke-linejoin="round" />
            <path d="M151.414 81H145.375" stroke="black" stroke-linecap="round"
                stroke-linejoin="round" />
            <path d="M151.414 88.4341H145.375" stroke="black" stroke-linecap="round"
                stroke-linejoin="round" />
            <path d="M111.298 88.4339V81" stroke="black" stroke-linecap="round"
                stroke-linejoin="round" />
            <path d="M105.26 82.8982V81H117.337V82.8982" stroke="black" stroke-linecap="round"
                stroke-linejoin="round" />
            <path d="M114.318 88.4341H108.279" stroke="black" stroke-linecap="round"
                stroke-linejoin="round" />
            <path d="M74.8477 88.4339V81" stroke="black" stroke-linecap="round"
                stroke-linejoin="round" />
            <path
                d="M46.3818 81H55.9565C57.6151 81 58.4593 81.8348 58.4593 82.8585C58.4593 83.8821 57.6151 84.717 55.9565 84.717C57.6151 84.717 58.4593 85.5518 58.4593 86.5754C58.4593 87.5991 57.6151 88.4339 55.9565 88.4339H46.3818"
                stroke="black" stroke-linecap="round" stroke-linejoin="round" />
            <path d="M166.045 84.7173H160.006" stroke="black" stroke-linecap="round"
                stroke-linejoin="round" />
            <path d="M172.093 88.4341H166.044" stroke="black" stroke-linecap="round"
                stroke-linejoin="round" />
            <path d="M160.006 88.4341H153.967" stroke="black" stroke-linecap="round"
                stroke-linejoin="round" />
            <path d="M169.074 88.4339L163.025 81" stroke="black" stroke-linecap="round"
                stroke-linejoin="round" />
            <path d="M156.986 88.4339L163.025 81" stroke="black" stroke-linecap="round"
                stroke-linejoin="round" />
            <path d="M99.6872 84.7173H93.6484" stroke="black" stroke-linecap="round"
                stroke-linejoin="round" />
            <path d="M105.726 88.4341H99.6875" stroke="black" stroke-linecap="round"
                stroke-linejoin="round" />
            <path d="M96.6677 81H90.6289" stroke="black" stroke-linecap="round"
                stroke-linejoin="round" />
            <path d="M93.6491 88.4341H87.6104" stroke="black" stroke-linecap="round"
                stroke-linejoin="round" />
            <path d="M102.707 88.4339L96.668 81" stroke="black" stroke-linecap="round"
                stroke-linejoin="round" />
            <path d="M90.6289 88.4339L96.6677 81" stroke="black" stroke-linecap="round"
                stroke-linejoin="round" />
            <path d="M38.2175 84.7173H32.1787" stroke="black" stroke-linecap="round"
                stroke-linejoin="round" />
            <path d="M44.2565 88.4341H38.2178" stroke="black" stroke-linecap="round"
                stroke-linejoin="round" />
            <path d="M163.025 81H156.986" stroke="black" stroke-linecap="round"
                stroke-linejoin="round" />
            <path d="M35.1981 81H29.1494" stroke="black" stroke-linecap="round"
                stroke-linejoin="round" />
            <path d="M32.1786 88.4341H26.1299" stroke="black" stroke-linecap="round"
                stroke-linejoin="round" />
            <path d="M41.237 88.4339L35.1982 81" stroke="black" stroke-linecap="round"
                stroke-linejoin="round" />
            <path d="M29.1494 88.4339L35.1981 81" stroke="black" stroke-linecap="round"
                stroke-linejoin="round" />
            <path d="M77.8669 88.4341H71.8281" stroke="black" stroke-linecap="round"
                stroke-linejoin="round" />
            <path d="M17.5388 81H11.5" stroke="black" stroke-linecap="round" stroke-linejoin="round" />
            <path d="M23.5775 86.6152V88.434H11.5" stroke="black" stroke-linecap="round"
                stroke-linejoin="round" />
            <path d="M49.3613 88.4339V81" stroke="black" stroke-linecap="round"
                stroke-linejoin="round" />
            <path d="M14.5195 88.4339V81" stroke="black" stroke-linecap="round"
                stroke-linejoin="round" />
            <path
                d="M119.88 84.7172C119.866 85.4689 120.076 86.2077 120.483 86.8395C120.891 87.4712 121.477 87.9674 122.167 88.2647C122.857 88.5619 123.62 88.6469 124.358 88.5088C125.097 88.3706 125.778 88.0156 126.314 87.4889C126.85 86.9622 127.217 86.2878 127.369 85.5514C127.521 84.8151 127.45 84.0502 127.166 83.3542C126.882 82.6583 126.397 82.0627 125.773 81.6435C125.149 81.2243 124.415 81.0003 123.664 81.0002C123.171 80.995 122.682 81.087 122.225 81.2711C121.769 81.4552 121.352 81.7277 121.001 82.073C120.649 82.4182 120.369 82.8295 120.177 83.2833C119.984 83.737 119.883 84.2243 119.88 84.7172Z"
                stroke="black" stroke-linecap="round" stroke-linejoin="round" />
            <path
                d="M61.4889 84.7172C61.4751 85.4689 61.6853 86.2077 62.0926 86.8395C62.4999 87.4712 63.086 87.9674 63.7761 88.2647C64.4662 88.5619 65.2292 88.6469 65.9678 88.5088C66.7064 88.3706 67.3871 88.0156 67.9233 87.4889C68.4595 86.9622 68.8269 86.2878 68.9786 85.5514C69.1303 84.8151 69.0596 84.0502 68.7753 83.3542C68.4911 82.6583 68.0062 82.0627 67.3824 81.6435C66.7587 81.2243 66.0244 81.0003 65.2731 81.0002C64.7805 80.995 64.2917 81.087 63.8348 81.2711C63.3778 81.4552 62.9617 81.7277 62.6102 82.073C62.2586 82.4182 61.9787 82.8295 61.7863 83.2833C61.5939 83.737 61.4928 84.2243 61.4889 84.7172Z"
                stroke="black" stroke-linecap="round" stroke-linejoin="round" />

    </symbol>

    <symbol id="icon-logo-small" viewBox="0 0 160 35" fill="none">
        <path
            d="M95.97 52.8014C97.9274 52.1488 99.7782 51.2111 101.462 50.0187C102.982 48.8758 103.111 47.3154 101.552 47.3154C100.37 47.3154 98.9695 48.7962 97.1022 51.2908C95.4634 53.507 88.1633 62.71 86.5543 64.9361C84.9453 67.1623 82.5814 68.5935 80.8135 66.6555"
            stroke="black" stroke-linecap="round" stroke-linejoin="round" />
        <path
            d="M82.6303 53.1093C80.7233 54.1528 78.5184 57.5517 79.4818 58.6549C80.3061 59.5891 83.0574 58.7543 84.8153 57.015C86.2654 55.5839 87.0799 53.6459 86.3548 52.7316C84.865 50.8831 83.0176 53.2087 84.9246 53.6261C86.8316 54.0435 91.2414 54.1031 97.3795 50.1377"
            stroke="black" stroke-linecap="round" stroke-linejoin="round" />
        <path
            d="M71.9141 50.1377C70.9209 50.0582 69.6197 51.6284 71.6856 52.9602C75.1619 55.2062 79.2838 53.0496 78.0025 52.4136C77.0093 51.9067 74.9036 53.1788 74.2382 53.7354C71.8743 55.723 70.2654 58.6449 73.0364 59.2313C75.44 59.7481 78.817 57.4523 79.9294 55.9616"
            stroke="black" stroke-linecap="round" stroke-linejoin="round" />
        <path
            d="M86.8723 56.3991C86.3161 58.7445 93.4771 60.0564 100.122 56.2003C102.108 55.0673 104.244 53.2188 103.101 52.3343C102.108 51.6287 99.9132 52.7616 99.0292 53.4176C97.8969 54.2524 96.6355 55.6736 96.5362 57.0053C96.3972 58.8936 97.7579 59.2216 99.5159 59.2116C102.382 59.2528 105.165 58.2456 107.342 56.3792C108.038 55.8525 111.166 53.6362 110.014 52.5331C108.862 51.4299 106.429 52.9107 104.998 54.5207C104.085 55.5146 102.853 57.701 103.846 58.7346C104.681 59.6092 108.932 59.7284 112.199 56.5084"
            stroke="black" stroke-linecap="round" stroke-linejoin="round" />
        <path
            d="M97.3897 50.1379C99.0483 49.2037 98.9589 47.3154 97.3897 47.3154C96.2077 47.3154 94.8173 48.7962 92.95 51.2908C91.3112 53.507 84.0111 62.71 82.3921 64.9361C80.7732 67.1623 78.9357 68.1959 77.1777 67.1723"
            stroke="black" stroke-linecap="round" stroke-linejoin="round" />
        <path
            d="M142.571 37.2179C142.57 37.5219 142.509 37.8226 142.39 38.1026C142.272 38.3826 142.099 38.6363 141.882 38.849C141.665 39.0616 141.408 39.229 141.125 39.3414C140.843 39.4538 140.541 39.509 140.237 39.5037C139.751 39.5089 139.269 39.4182 138.818 39.2366C138.367 39.055 137.957 38.7862 137.61 38.4455C137.263 38.1048 136.986 37.699 136.797 37.2513C136.607 36.8036 136.507 36.3228 136.503 35.8364"
            stroke="black" stroke-linecap="round" stroke-linejoin="round" />
        <path
            d="M85.3915 37.2177C85.3889 37.5187 85.3269 37.8163 85.2091 38.0933C85.0912 38.3703 84.9199 38.6212 84.7048 38.8318C84.4898 39.0423 84.2353 39.2083 83.956 39.3202C83.6767 39.432 83.3781 39.4876 83.0773 39.4837C82.0964 39.4916 81.1525 39.11 80.4524 38.4225C79.7523 37.7351 79.3533 36.7978 79.3428 35.8164"
            stroke="black" stroke-linecap="round" stroke-linejoin="round" />
        <path
            d="M128.497 32H138.072C139.74 32 140.584 32.8348 140.584 33.8585C140.584 34.8821 139.74 35.717 138.072 35.717H131.516"
            stroke="black" stroke-linecap="round" stroke-linejoin="round" />
        <path d="M131.517 39.4339V32" stroke="black" stroke-linecap="round" stroke-linejoin="round" />
        <path d="M134.536 39.4341H128.497" stroke="black" stroke-linecap="round"
            stroke-linejoin="round" />
        <path d="M55.4066 35.7173H48.8613" stroke="black" stroke-linecap="round"
            stroke-linejoin="round" />
        <path
            d="M71.3281 32H80.9027C82.5713 32 83.4057 32.8348 83.4057 33.8585C83.4057 34.8821 82.5713 35.717 80.9027 35.717H74.3475"
            stroke="black" stroke-linecap="round" stroke-linejoin="round" />
        <path d="M147.895 39.4339V32" stroke="black" stroke-linecap="round" stroke-linejoin="round" />
        <path d="M150.914 32H144.875" stroke="black" stroke-linecap="round" stroke-linejoin="round" />
        <path d="M150.914 39.4341H144.875" stroke="black" stroke-linecap="round"
            stroke-linejoin="round" />
        <path d="M110.798 39.4339V32" stroke="black" stroke-linecap="round" stroke-linejoin="round" />
        <path d="M104.76 33.8982V32H116.837V33.8982" stroke="black" stroke-linecap="round"
            stroke-linejoin="round" />
        <path d="M113.818 39.4341H107.779" stroke="black" stroke-linecap="round"
            stroke-linejoin="round" />
        <path d="M74.3477 39.4339V32" stroke="black" stroke-linecap="round" stroke-linejoin="round" />
        <path
            d="M45.8818 32H55.4565C57.1151 32 57.9593 32.8348 57.9593 33.8585C57.9593 34.8821 57.1151 35.717 55.4565 35.717C57.1151 35.717 57.9593 36.5518 57.9593 37.5754C57.9593 38.5991 57.1151 39.4339 55.4565 39.4339H45.8818"
            stroke="black" stroke-linecap="round" stroke-linejoin="round" />
        <path d="M165.545 35.7173H159.506" stroke="black" stroke-linecap="round"
            stroke-linejoin="round" />
        <path d="M171.593 39.4341H165.544" stroke="black" stroke-linecap="round"
            stroke-linejoin="round" />
        <path d="M159.506 39.4341H153.467" stroke="black" stroke-linecap="round"
            stroke-linejoin="round" />
        <path d="M168.574 39.4339L162.525 32" stroke="black" stroke-linecap="round"
            stroke-linejoin="round" />
        <path d="M156.486 39.4339L162.525 32" stroke="black" stroke-linecap="round"
            stroke-linejoin="round" />
        <path d="M99.1872 35.7173H93.1484" stroke="black" stroke-linecap="round"
            stroke-linejoin="round" />
        <path d="M105.226 39.4341H99.1875" stroke="black" stroke-linecap="round"
            stroke-linejoin="round" />
        <path d="M96.1677 32H90.1289" stroke="black" stroke-linecap="round" stroke-linejoin="round" />
        <path d="M93.1491 39.4341H87.1104" stroke="black" stroke-linecap="round"
            stroke-linejoin="round" />
        <path d="M102.207 39.4339L96.168 32" stroke="black" stroke-linecap="round"
            stroke-linejoin="round" />
        <path d="M90.1289 39.4339L96.1677 32" stroke="black" stroke-linecap="round"
            stroke-linejoin="round" />
        <path d="M37.7175 35.7173H31.6787" stroke="black" stroke-linecap="round"
            stroke-linejoin="round" />
        <path d="M43.7565 39.4341H37.7178" stroke="black" stroke-linecap="round"
            stroke-linejoin="round" />
        <path d="M162.525 32H156.486" stroke="black" stroke-linecap="round" stroke-linejoin="round" />
        <path d="M34.6981 32H28.6494" stroke="black" stroke-linecap="round" stroke-linejoin="round" />
        <path d="M31.6786 39.4341H25.6299" stroke="black" stroke-linecap="round"
            stroke-linejoin="round" />
        <path d="M40.737 39.4339L34.6982 32" stroke="black" stroke-linecap="round"
            stroke-linejoin="round" />
        <path d="M28.6494 39.4339L34.6981 32" stroke="black" stroke-linecap="round"
            stroke-linejoin="round" />
        <path d="M77.3669 39.4341H71.3281" stroke="black" stroke-linecap="round"
            stroke-linejoin="round" />
        <path d="M17.0388 32H11" stroke="black" stroke-linecap="round" stroke-linejoin="round" />
        <path d="M23.0775 37.6152V39.434H11" stroke="black" stroke-linecap="round"
            stroke-linejoin="round" />
        <path d="M48.8613 39.4339V32" stroke="black" stroke-linecap="round" stroke-linejoin="round" />
        <path d="M14.0195 39.4339V32" stroke="black" stroke-linecap="round" stroke-linejoin="round" />
        <path
            d="M119.38 35.7172C119.366 36.4689 119.576 37.2077 119.983 37.8395C120.391 38.4712 120.977 38.9674 121.667 39.2647C122.357 39.5619 123.12 39.6469 123.858 39.5088C124.597 39.3706 125.278 39.0156 125.814 38.4889C126.35 37.9622 126.717 37.2878 126.869 36.5514C127.021 35.8151 126.95 35.0502 126.666 34.3542C126.382 33.6583 125.897 33.0627 125.273 32.6435C124.649 32.2243 123.915 32.0003 123.164 32.0002C122.671 31.995 122.182 32.087 121.725 32.2711C121.269 32.4552 120.852 32.7277 120.501 33.073C120.149 33.4182 119.869 33.8295 119.677 34.2833C119.484 34.737 119.383 35.2243 119.38 35.7172Z"
            stroke="black" stroke-linecap="round" stroke-linejoin="round" />
        <path
            d="M60.9889 35.7172C60.9751 36.4689 61.1853 37.2077 61.5926 37.8395C61.9999 38.4712 62.586 38.9674 63.2761 39.2647C63.9662 39.5619 64.7292 39.6469 65.4678 39.5088C66.2064 39.3706 66.8871 39.0156 67.4233 38.4889C67.9595 37.9622 68.3269 37.2878 68.4786 36.5514C68.6303 35.8151 68.5596 35.0502 68.2753 34.3542C67.9911 33.6583 67.5062 33.0627 66.8824 32.6435C66.2587 32.2243 65.5244 32.0003 64.7731 32.0002C64.2805 31.995 63.7917 32.087 63.3348 32.2711C62.8778 32.4552 62.4617 32.7277 62.1102 33.073C61.7586 33.4182 61.4787 33.8295 61.2863 34.2833C61.0939 34.737 60.9928 35.2243 60.9889 35.7172Z"
            stroke="black" stroke-linecap="round" stroke-linejoin="round" />


    </symbol>

</svg>