<svg xmlns="http://www.w3.org/2000/svg" style="display: none;">

    <symbol id="icon-filter" viewBox="0 0 24 24" fill="none">
        <path d="M12 5H20M4 19H7M4 5H8M11 19H20M17 12H20M4 12H13" stroke="currentColor" stroke-width="2" stroke-linecap="round"/>
        <path d="M8 5C8 6.10457 8.89543 7 10 7C11.1046 7 12 6.10457 12 5C12 3.89543 11.1046 3 10 3C8.89543 3 8 3.89543 8 5Z" stroke="currentColor" stroke-width="2" stroke-linecap="round"/>
        <path d="M13 12C13 13.1046 13.8954 14 15 14C16.1046 14 17 13.1046 17 12C17 10.8954 16.1046 10 15 10C13.8954 10 13 10.8954 13 12Z" stroke="currentColor" stroke-width="2" stroke-linecap="round"/>
        <path d="M7 19C7 20.1046 7.89543 21 9 21C10.1046 21 11 20.1046 11 19C11 17.8954 10.1046 17 9 17C7.89543 17 7 17.8954 7 19Z" stroke="currentColor" stroke-width="2" stroke-linecap="round"/>
    </symbol>

    <symbol id="icon-chevron-down" viewBox="0 0 24 24" fill="none">
        <path d="M6 9L12 15L18 9" stroke="currentColor" stroke-width="2" stroke-linecap="round" stroke-linejoin="round"/>
    </symbol>

    <symbol id="icon-sort" viewBox="0 0 24 24" fill="none">
        <path d="M18.5084 23L18.5 11.1407M23 15.6587L18.5 11L14 15.6587" stroke="currentColor" stroke-width="2" stroke-linecap="round" stroke-linejoin="round"/>
        <path d="M5.50836 1L5.5 12.8593M10 8.34133L5.5 13L1 8.34133" stroke="currentColor" stroke-width="2" stroke-linecap="round" stroke-linejoin="round"/>
    </symbol>

    <symbol id="icon-plus" viewBox="0 0 24 24" fill="none">
        <path d="M16.7461 10.9844V13.1035H7V10.9844H16.7461ZM13.0156 7V17.3516H10.7402V7H13.0156Z" fill="currentColor"/>
    </symbol>

    <symbol id="icon-arrow-right" viewBox="0 0 13 10" fill="none" stroke="currentColor">
        <path d="M0.5 5.00836L12.3593 5M7.84133 9.5L12.5 5L7.84133 0.5" stroke-linecap="round" stroke-linejoin="round"/>
    </symbol>

    <symbol id="icon-search" viewBox="0 0 24 24" fill="none" stroke="currentColor">
        <path
            d="M10 18C14.4183 18 18 14.4183 18 10C18 5.58172 14.4183 2 10 2C5.58172 2 2 5.58172 2 10C2 14.4183 5.58172 18 10 18Z"
            stroke-width="2" />
        <path d="M22 22L18 18" stroke-width="2" stroke-linecap="round" />
    </symbol>

    <symbol id="icon-cart" viewBox="0 0 32 32" fill="none" stroke="currentColor">
        <path
            d="M4.66699 6H6.63195C7.50974 6 7.94864 6 8.27908 6.22909C8.60951 6.45818 8.74824 6.85818 9.02571 7.65818L9.7118 9.63636"
            stroke-width="1.7" stroke-linecap="round" />
        <path
            d="M22.3238 21.7575H10.4054C10.2225 21.7575 10.1305 21.7575 10.0598 21.7502C9.88472 21.7314 9.71564 21.6776 9.5635 21.5922C9.41136 21.5067 9.27953 21.3916 9.17651 21.2542C9.07349 21.1169 9.00156 20.9602 8.96537 20.7945C8.92918 20.6288 8.92952 20.4576 8.96637 20.292C8.99537 20.1847 9.02946 20.0787 9.06853 19.9744C9.13411 19.7878 9.16564 19.6944 9.20222 19.6108C9.38175 19.1975 9.67689 18.8401 10.0549 18.5782C10.4329 18.3163 10.879 18.1602 11.3437 18.1272C11.4371 18.1211 11.5392 18.1211 11.7435 18.1211H18.5402"
            stroke-width="1.7" stroke-linecap="round" stroke-linejoin="round" />
        <path
            d="M18.1352 18.1211H14.2999C12.6855 18.1211 11.8784 18.1211 11.2478 17.7211C10.6159 17.3211 10.2981 16.6084 9.66243 15.1829L9.44928 14.7053C8.42771 12.4144 7.91818 11.2714 8.47816 10.4532C9.04065 9.63623 10.3372 9.63623 12.9277 9.63623H19.5868C22.4876 9.63623 23.9367 9.63623 24.4841 10.5417C25.0302 11.4471 24.3113 12.6568 22.8723 15.0762L22.5153 15.6787C21.8066 16.8702 21.4522 17.4665 20.8644 17.7938C20.2767 18.1211 19.5629 18.1211 18.1352 18.1211Z"
            stroke-width="1.7" stroke-linecap="round" />
        <path
            d="M20.5 27C21.3284 27 22 26.3284 22 25.5C22 24.6716 21.3284 24 20.5 24C19.6716 24 19 24.6716 19 25.5C19 26.3284 19.6716 27 20.5 27Z"
            fill="currentColor" stroke="none" />
        <path
            d="M11.5 27C12.3284 27 13 26.3284 13 25.5C13 24.6716 12.3284 24 11.5 24C10.6716 24 10 24.6716 10 25.5C10 26.3284 10.6716 27 11.5 27Z"
            fill="currentColor" stroke="none" />
    </symbol>

    <symbol id="icon-favorite" viewBox="0 0 32 32" fill="none" stroke="currentColor">
        <path
            d="M11.75 8C9.127 8 7 10.26 7 13.047C7 18.625 16 25 16 25C16 25 25 18.625 25 13.047C25 9.594 22.873 8 20.25 8C18.39 8 16.78 9.136 16 10.79C15.22 9.136 13.61 8 11.75 8Z"
            stroke-width="2" stroke-linecap="round" stroke-linejoin="round" />
    </symbol>

    <symbol id="icon-user" viewBox="0 0 32 32" fill="none">
        <path
            d="M15.333 18.6665C20.853 18.6665 25.333 20.7598 25.333 23.3332V26.6665H5.33301V23.3332C5.33301 20.7598 9.81301 18.6665 15.333 18.6665ZM23.9997 23.3332C23.9997 21.4932 20.1197 19.9998 15.333 19.9998C10.5463 19.9998 6.66634 21.4932 6.66634 23.3332V25.3332H23.9997V23.3332ZM15.333 6.6665C16.5707 6.6665 17.7577 7.15817 18.6328 8.03334C19.508 8.90851 19.9997 10.0955 19.9997 11.3332C19.9997 12.5708 19.508 13.7578 18.6328 14.633C17.7577 15.5082 16.5707 15.9998 15.333 15.9998C14.0953 15.9998 12.9083 15.5082 12.0332 14.633C11.158 13.7578 10.6663 12.5708 10.6663 11.3332C10.6663 10.0955 11.158 8.90851 12.0332 8.03334C12.9083 7.15817 14.0953 6.6665 15.333 6.6665ZM15.333 7.99984C14.449 7.99984 13.6011 8.35103 12.976 8.97615C12.3509 9.60127 11.9997 10.4491 11.9997 11.3332C11.9997 12.2172 12.3509 13.0651 12.976 13.6902C13.6011 14.3153 14.449 14.6665 15.333 14.6665C16.2171 14.6665 17.0649 14.3153 17.69 13.6902C18.3152 13.0651 18.6663 12.2172 18.6663 11.3332C18.6663 10.4491 18.3152 9.60127 17.69 8.97615C17.0649 8.35103 16.2171 7.99984 15.333 7.99984Z"
            fill="currentColor" stroke="currentColor" stroke-width="0.5" />
    </symbol>

    <symbol id="icon-logo-composite" viewBox="0 0 183 129" fill="none">

        <g class="logo-inner" stroke="currentColor" stroke-linecap="round" stroke-linejoin="round">
            <path
                d="M96.469 101.301C98.4265 100.649 100.277 99.7111 101.961 98.5187C103.481 97.3758 103.61 95.8154 102.051 95.8154C100.869 95.8154 99.4685 97.2962 97.6013 99.7908C95.9625 102.007 88.6623 111.21 87.0533 113.436C85.4443 115.662 83.0804 117.093 81.3125 115.155" />
            <path
                d="M83.1303 101.609C81.2233 102.653 79.0184 106.052 79.9818 107.155C80.8061 108.089 83.5574 107.254 85.3153 105.515C86.7654 104.084 87.5799 102.146 86.8548 101.232C85.365 99.3831 83.5176 101.709 85.4246 102.126C87.3316 102.543 91.7414 102.603 97.8795 98.6377" />
            <path
                d="M72.4141 98.6377C71.4209 98.5582 70.1197 100.128 72.1856 101.46C75.6619 103.706 79.7838 101.55 78.5025 100.914C77.5093 100.407 75.4036 101.679 74.7382 102.235C72.3743 104.223 70.7654 107.145 73.5364 107.731C75.94 108.248 79.317 105.952 80.4294 104.462" />
            <path
                d="M87.3723 104.899C86.8161 107.244 93.9771 108.556 100.622 104.7C102.608 103.567 104.744 101.718 103.601 100.834C102.608 100.128 100.413 101.261 99.5292 101.917C98.3969 102.752 97.1355 104.173 97.0362 105.505C96.8972 107.393 98.2579 107.721 100.016 107.711C102.882 107.752 105.665 106.745 107.842 104.879C108.538 104.352 111.666 102.136 110.514 101.033C109.362 99.9294 106.929 101.41 105.498 103.02C104.585 104.014 103.353 106.201 104.346 107.234C105.181 108.109 109.432 108.228 112.699 105.008" />
            <path
                d="M97.8897 98.6379C99.5483 97.7037 99.4589 95.8154 97.8897 95.8154C96.7077 95.8154 95.3173 97.2962 93.45 99.7908C91.8112 102.007 84.5111 111.21 82.8921 113.436C81.2732 115.662 79.4357 116.696 77.6777 115.672" />
            <path
                d="M143.071 85.7179C143.07 86.0219 143.009 86.3226 142.89 86.6026C142.772 86.8826 142.599 87.1363 142.382 87.349C142.165 87.5616 141.908 87.729 141.625 87.8414C141.343 87.9538 141.041 88.009 140.737 88.0037C140.251 88.0089 139.769 87.9182 139.318 87.7366C138.867 87.555 138.457 87.2862 138.11 86.9455C137.763 86.6048 137.486 86.199 137.297 85.7513C137.107 85.3036 137.007 84.8228 137.003 84.3364" />
            <path
                d="M85.8925 85.7177C85.8899 86.0187 85.3279 85.8163 85.2101 86.0933C85.0922 86.3703 84.9208 86.6212 84.7058 86.8318C84.4908 87.0423 84.2363 87.2083 83.957 87.3202C83.6777 87.432 83.3791 87.4876 83.0783 87.4837C82.0974 87.4916 81.1534 87.11 80.4534 86.4225C79.7533 85.7351 79.3542 84.7978 79.3438 83.8164" />
            <path
                d="M128.997 80.5H138.572C140.24 80.5 141.084 81.3348 141.084 82.3585C141.084 83.3821 140.24 84.217 138.572 84.217H132.016" />
            <path d="M132.017 87.9339V80.5" />
            <path d="M135.037 87.9341H128.998" />
            <path d="M55.9066 84.2173H49.3613" />
            <path
                d="M71.8281 80.5H81.4027C83.0713 80.5 83.9057 81.3348 83.9057 82.3585C83.9057 83.3821 83.0713 84.217 81.4027 84.217H74.8475" />
            <path d="M148.395 87.9339V80.5" />
            <path d="M151.414 80.5H145.375" />
            <path d="M151.414 87.9341H145.375" />
            <path d="M111.299 87.9339V80.5" />
            <path d="M105.26 82.3982V80.5H117.337V82.3982" />
            <path d="M114.318 87.9341H108.279" />
            <path d="M74.8477 87.9339V80.5" />
            <path
                d="M46.3818 80.5H55.9565C57.6151 80.5 58.4593 81.3348 58.4593 82.3585C58.4593 83.3821 57.6151 84.217 55.9565 84.217C57.6151 84.217 58.4593 85.0518 58.4593 86.0754C58.4593 87.0991 57.6151 87.9339 55.9565 87.9339H46.3818" />
            <path d="M166.045 84.2173H160.006" />
            <path d="M172.094 87.9341H166.045" />
            <path d="M160.006 87.9341H153.967" />
            <path d="M169.074 87.9339L163.025 80.5" />
            <path d="M156.986 87.9339L163.025 80.5" />
            <path d="M99.6872 84.2173H93.6484" />
            <path d="M105.726 87.9341H99.6875" />
            <path d="M96.6677 80.5H90.6289" />
            <path d="M93.6491 87.9341H87.6104" />
            <path d="M102.707 87.9339L96.668 80.5" />
            <path d="M90.6289 87.9339L96.6677 80.5" />
            <path d="M38.2175 84.2173H32.1787" />
            <path d="M44.2565 87.9341H38.2178" />
            <path d="M163.025 80.5H156.986" />
            <path d="M35.1981 80.5H29.1494" />
            <path d="M32.1786 87.9341H26.1299" />
            <path d="M41.237 87.9339L35.1982 80.5" />
            <path d="M29.1494 87.9339L35.1981 80.5" />
            <path d="M77.8669 87.9341H71.8281" />
            <path d="M17.5388 80.5H11.5" />
            <path d="M23.5775 86.1152V87.934H11.5" />
            <path d="M49.3613 87.9339V80.5" />
            <path d="M14.5195 87.9339V80.5" />
            <path
                d="M119.38 83.7172C119.366 84.4689 119.576 85.2077 119.983 85.8395C120.391 86.4712 120.977 86.9674 121.667 87.2647C122.357 87.5619 123.12 87.6469 123.858 87.5088C124.597 87.3706 125.278 87.0156 125.814 86.4889C126.35 85.9622 126.717 85.2878 126.869 84.5514C127.021 83.8151 126.95 83.0502 126.666 82.3542C126.382 81.6583 125.897 81.0627 125.273 80.6435C124.649 80.2243 123.915 80.0003 123.164 80.0002C122.671 79.995 122.182 80.087 121.725 80.2711C121.269 80.4552 120.852 80.7277 120.501 81.073C120.149 81.4182 119.869 81.8295 119.677 82.2833C119.484 82.737 119.38 83.7172Z" />
            <path
                d="M60.9889 83.7172C60.9751 84.4689 61.1853 85.2077 61.5926 85.8395C61.9999 86.4712 63.086 87.4674 63.7761 87.7647C64.4662 88.0619 65.2292 88.1469 65.9678 88.0088C66.7064 87.8706 67.3871 87.5156 67.9233 86.9889C68.4595 86.4622 68.8269 85.7878 68.9786 85.0514C69.1303 84.3151 69.0596 83.5502 68.2753 82.3542C67.9911 81.6583 67.5062 81.0627 66.8824 80.6435C66.2587 80.2243 65.5244 80.0003 64.7731 80.0002C64.2805 79.995 63.7917 80.087 63.3348 80.2711C62.8778 80.4552 62.4617 80.7277 62.1102 81.073C61.7586 81.4182 61.4787 81.8295 61.2863 82.2833C61.0939 82.737 60.9928 83.2243 60.9889 83.7172Z" />
        </g>

        <g class="logo-outline"
            style="opacity: var(--outline-opacity, 0); transform: scale(var(--outline-scale, 0.8)); transform-origin: 91.5px 64.5px; transition: opacity 0.6s ease, transform 0.6s ease;"
            stroke="currentColor" stroke-linecap="round" stroke-linejoin="round">
            <path
                d="M109.654 39.21L182.507 63.1813V98.6911L91.5084 128.506L0.5 98.6911V63.1813L73.3524 39.21" />
            <path
                d="M99.4637 30.4344C98.7125 30.6981 97.9464 30.9172 97.1693 31.0903C96.1761 31.2095 96.4046 32.4022 97.07 32.3823C97.8893 32.2681 98.7017 32.1089 99.5034 31.9052M95.0836 33.4357C95.3162 33.5994 95.5865 33.7012 95.8691 33.7317C96.1518 33.7622 96.4376 33.7204 96.6997 33.6101C96.9618 33.4999 97.1916 33.3248 97.3676 33.1013C97.5435 32.8779 97.6599 32.6134 97.7057 32.3326M97.5766 30.9512C97.4562 30.6656 97.2688 30.4134 97.0303 30.2157C96.7996 30.0072 96.5126 29.8715 96.2051 29.8255C95.8977 29.7796 95.5836 29.8254 95.3021 29.9573M92.8985 33.6941V37.9577M90.4552 33.1575V37.3614M93.2561 29.3312C93.7131 29.6041 94.0648 30.0235 94.2541 30.5213C94.4433 31.0191 94.4592 31.5663 94.299 32.0742M89.6209 28.7548L90.783 29.1523C91.284 29.0069 91.811 28.9743 92.3262 29.0568C92.8413 29.1393 93.3319 29.3348 93.7626 29.6293C93.852 29.6293 94.5473 29.53 94.5473 29.53C94.9612 29.6886 95.3102 29.9812 95.5387 30.3612C95.7673 30.7411 95.8623 31.1867 95.8086 31.627C95.6696 33.8035 94.1698 33.6146 94.14 33.5649C94.1102 33.5153 93.6335 33.2767 93.5541 33.2171C92.9085 33.7736 90.932 33.8134 90.3758 32.8991C89.7208 33.0739 89.0283 33.0461 88.3893 32.8196M87.0386 31.5773C87.1021 31.9449 87.3047 32.274 87.6043 32.4961C87.9039 32.7182 88.2776 32.8162 88.6476 32.7699C89.0842 32.7648 89.5016 32.5896 89.8113 32.2816C90.1209 31.9736 90.2985 31.5569 90.3062 31.1201C90.634 29.1324 89.3925 28.4964 88.6972 28.5461C88.6972 28.5461 87.3067 28.5461 87.1478 29.5399M95.1332 18.0313L94.5473 19.2537M99.1657 8.3215L95.7292 16.5008M91.5775 27.91C92.4118 27.751 93.6633 28.397 94.3685 28.238C95.5206 27.9597 95.0439 26.5584 94.8254 26.3596C94.4579 25.8428 93.6335 26.1739 92.7793 25.9354M91.6073 28.5094C90.9618 28.5094 90.0977 28.9964 89.3925 28.8374C88.2404 28.5591 88.7171 27.1578 88.9356 26.959C89.3031 26.4422 90.2963 26.323 91.1504 26.0844M79.3908 6.70154C79.3908 6.70154 82.3704 3.49453 91.3094 3.53429C100.248 3.57404 104.082 7.16178 104.082 7.16178M91.6073 23.7887C92.3478 23.823 93.0798 23.9601 93.7825 24.1961C96.3549 20.3301 103.437 8.01649 104.122 7.14191C105.046 6.4661 104.489 5.03497 104.489 5.03497C104.489 5.03497 103.089 1.05963 91.7662 1M93.8421 24.1464C94.9743 24.5539 94.6664 26.7205 93.564 26.2733C93.0095 26.0755 92.4243 25.9779 91.8358 25.9851M89.8493 24.1464C88.727 24.544 89.1541 26.6807 90.2566 26.2335C90.7712 26.0444 91.3176 25.9566 91.8656 25.9751M91.7861 23.7887C91.0456 23.8223 90.3135 23.9595 89.611 24.1961C87.0286 20.3301 79.947 8.01649 79.2617 7.14191C78.338 6.4661 78.9041 5.03497 78.9041 5.03497C78.9041 5.03497 80.2946 1.05963 91.6272 1M100.228 31.6698C100.217 31.7987 100.168 31.9215 100.088 32.0231C100.008 32.1246 99.8994 32.2006 99.7767 32.2416C99.654 32.2827 99.522 32.2871 99.3968 32.2542C99.2717 32.2214 99.1588 32.1527 99.072 32.0567C98.9853 31.9607 98.9284 31.8414 98.9083 31.7135C98.8882 31.5856 98.9058 31.4546 98.959 31.3366C99.0121 31.2186 99.0985 31.1186 99.2075 31.0489C99.3166 30.9792 99.4436 30.9429 99.573 30.9443C99.7556 30.9546 99.9269 30.9546 100.05 30.6723C100.172 30.8081 100.237 30.9869 100.228 31.1698ZM92.8985 38.8751C92.7793 39.2826 92.1139 39.4416 91.4186 38.7329C90.7234 38.5242 90.2566 38.0372 90.4254 37.6297C90.5943 37.2223 91.2101 37.0632 91.9152 37.272C92.6204 37.4807 93.0276 37.9676 92.8985 38.3751ZM88.588 31.0337C88.5595 31.2213 88.478 31.3968 88.3531 31.5395C88.2281 31.6822 88.065 31.2861 87.8829 31.339C87.7008 31.3919 87.5074 31.3916 87.3256 31.338C87.1437 31.2844 86.9809 31.1799 86.8565 31.0367C86.7321 30.8936 86.6513 30.7178 86.6235 30.5301C86.5957 30.3424 86.6223 30.1507 86.6999 29.9777C86.7775 29.8046 86.903 29.6574 87.0616 29.5534C87.2202 29.4494 87.4052 29.393 87.5948 29.3908C87.7383 29.403 87.8779 29.4442 88.005 29.512C88.1321 29.5799 88.2442 29.6728 88.3343 29.7853C88.4244 29.8978 88.4907 30.0274 88.5292 30.1663C88.5677 30.3052 88.5775 30.4505 88.5582 30.5934L88.588 30.5337Z" />
            <path d="M90.4951 29.5034V28.9171M92.7 29.9109V28.6885" stroke-linejoin="round" />
            <path
                d="M91.9854 34.3728V37.096M99.2358 3.30551C100.407 3.64204 101.52 4.15834 102.533 4.83602M79.6298 5.39256C79.6298 5.39256 85.8771 0.592334 97.8155 2.98748M80.2754 61.1667V59.7057M92.2734 69.3161V67.9049M92.1443 66.8017L92.2536 65.152M65.8439 61.7829V64.0786L92.323 69.3161L114.472 65.4203V63.4326M65.3076 60.3915V61.7232L65.8638 61.8326L92.1641 66.8514L114.849 63.4326L114.74 61.9916M72.4488 59.7554L65.5757 60.2822C65.5757 60.2822 92.0549 65.2513 92.2734 65.2513C92.4919 65.2513 114.74 62.0413 114.74 62.0413C114.74 62.0413 100.12 59.9641 100.279 59.9641M72.9256 58.6622L72.8064 60.0635L79.9277 61.1866L84.1787 60.948M103.318 47.243L102.931 50.5028M100.746 58.861C101.435 57.1616 101.976 55.4059 102.364 53.6135M84.6554 51.9439C84.9733 54.6685 85.641 57.3408 86.6419 59.8946M84.4767 49.1015V50.0158M101.143 57.887C103.685 57.1218 109.426 54.1104 108.84 49.4891C108.214 46.5573 105.275 46.925 103.467 47.5014M103.119 49.6183C103.308 49.5487 103.119 49.509 103.338 48.9493C104.172 49.181 106.079 48.694 106.486 49.6581C107.34 51.4668 104.291 54.6272 101.977 55.4322M92.2734 63.8003C92.2734 63.8003 96.574 63.7208 98.3519 61.6208C99.6595 60.5111 100.627 59.0538 101.143 57.4173M101.977 54.8135C102.479 52.9573 102.848 51.0675 103.08 49.1585M103.308 46.8827C103.355 46.5865 103.331 46.2833 103.239 45.9981M92.5019 63.3008C90.1271 63.5422 87.7425 62.9483 85.7579 61.6213C81.8546 58.9975 80.6826 46.9622 81.209 46.0776M92.7899 44.4179C98.6697 44.4179 103.338 45.2627 103.338 46.2367C103.338 47.2106 98.3718 48.0554 92.2536 48.0554C86.1354 48.0554 81.1692 47.2404 81.1692 46.2367C81.1692 45.2329 85.1421 44.577 90.436 44.4378M80.8316 58.1229L82.9968 57.9142M86.9697 29.57C86.9697 29.57 80.9209 33.2969 79.302 42.4899C78.5665 46.7551 78.3763 51.0965 78.7359 55.4098L77.9612 57.8546L79.5702 58.1229C79.5702 57.8546 79.898 55.5887 79.898 55.5887M83.553 58.9776L80.1661 59.1963L73.005 58.0534L77.842 57.6558M88.3999 33.0981C88.3999 33.0981 84.139 36.2387 82.9173 43.6328C82.8279 44.1595 82.7485 44.6863 82.679 45.1931M86.6518 31.2794C83.4615 34.3006 81.3122 38.2573 80.5137 42.5793C79.8311 46.8501 79.6445 51.1855 79.9575 55.4992M88.7971 23.0008H87.0988V26.9264M88.4793 27.0059H85.9963V28.9936H87.5457" />
            <path d="M92.0547 29.1719V28.1582" stroke-miterlimit="10" />
            <path
                d="M91.6079 41.9331C91.6079 41.9331 89.5519 45.3618 91.8165 45.491C93.8923 45.1531 91.6079 41.9331 91.6079 41.9331Z" />
            <path d="M83.1152 47.5187C89.0959 46.8262 95.138 46.8529 101.112 47.5982" />
            <path d="M94.9453 27.8107C94.9453 27.8107 94.3991 27.5921 94.0713 27.4927" />
            <path d="M88.6777 27.8107C88.6777 27.8107 91.3495 26.8964 92.8194 27.2243" />
        </g>
    </symbol>

</svg>